<?xml version="1.0" encoding="utf-8"?>
<!-- Generator: Adobe Illustrator 16.0.0, SVG Export Plug-In . SVG Version: 6.00 Build 0)  -->
<!DOCTYPE svg PUBLIC "-//W3C//DTD SVG 1.1//EN" "http://www.w3.org/Graphics/SVG/1.1/DTD/svg11.dtd">
<svg version="1.1" id="Layer_1" xmlns="http://www.w3.org/2000/svg" xmlns:xlink="http://www.w3.org/1999/xlink" x="0px" y="0px"
	 viewBox="-221.904 -246.298 472.729 503.298"
	 enable-background="new -221.904 -246.298 472.729 503.298" xml:space="preserve">
<path fill-rule="evenodd" clip-rule="evenodd" fill="#fff" d="M15.5,257c-27.725-27.725-54.81-55.562-82.77-82.492
	c-17.321-16.683-34.2-33.791-51.324-50.659c-17.333-17.072-34.436-34.378-51.639-51.581c-17.204-17.204-34.407-34.407-51.672-51.672
	c0-12.722,0-25.505,0-38.191c0.332-0.332,0.527-0.643,0.81-0.792c3.834-2.037,7.755-3.9,11.386-6.329
	c1.567-1.048,3.442-1.462,5.459-1.326c2.632,0.177,5.284,0.043,8.1,0.043c0-5.953,0-11.739,0-17.739
	c8.267-4.694,17.519-7.048,26.015-11.361c0-6.201,0-12.321,0-18.209c3.316-1.929,6.4-3.723,9.814-5.708c3.779,0,7.9,0,12.191,0
	c0-4.289,0-8.409,0-12.43c1.833-0.949,3.486-1.806,5.066-2.624c0-2.284,0-4.267,0-6.012c2.142-2.14,4.134-4.129,6.122-6.115
	c0-4.302,0-8.422,0-12.63c0.617-0.065,1.069-0.112,1.735-0.183c0,7.202,0,14.313,0,21.438c2.353,2.24,5.281,1.876,8.148,2.738
	c0-4.212,0-7.999,0-11.659c3.454-3.442,6.758-6.733,10.062-10.027c0.002-9.331,0.002-18.661,0.002-28.048
	c3.184,0.426,6.346,0.85,9.899,1.325c0.226-6.639,0.009-13.552,0.116-20.472c1.305-0.831,2.5-1.593,3.819-2.434
	c0-4.127,0-8.248,0-11.819c2.084-4.049,4.521-0.449,6.996-1.127c0.088-1.455,0.183-3.031,0.304-5.036
	c1.92,0.446,3.69,0.858,5.664,1.316c0,1.359,0,2.812,0,4.268c1.76,0.607,3.355,1.158,5.103,1.761c0,2.798,0,5.586,0,8.579
	c0.945,0,1.716,0,2.962,0c0.296-5.172,0.029-10.59,0.158-16.163c4.021-4.488,6.105-10.268,8.96-15.605
	c0.433-0.811,0.632-1.745,1.064-2.556c1.292-2.42,2.855-4.599,5.765-5.421c0-1.296,0-2.412,0-3.87
	c1.396-0.072,2.63-0.136,4.054-0.21c0,1.673,0,3.124,0,4.634c2.875,0.396,3.581,2.632,4.08,4.734
	c1.004,4.236,2.958,8.124,4.27,12.248c0.687,2.162,2.454,3.98,3.958,6.302c0,1.413,0,3.204,0,5.351
	c3.724-1.361,5.05-5.397,8.716-6.245c0-8.991,0-17.776,0-26.711c2.76-0.863,5.401-1.689,8.105-2.535
	c0-3.793-0.089-7.448,0.046-11.096c0.051-1.372,0.262-2.98,1.016-4.043c3.442-4.848,5.979-10.217,9.096-15.245
	c0.345-0.556,0.839-1.019,1.375-1.658c3.83,2.012,4.905,5.766,6.703,9.003c1.81,3.26,3.774,6.433,5.7,9.691
	c0,4.955,0,9.938,0,15.208c2.227,0.852,4.495,1.72,7.114,2.723c0,3.435,0,7.017,0,11.196c5.858-5.858,11.231-11.231,16.828-16.828
	c4.831,4.15,8.977,8.879,13.548,13.18c0.081-0.03,0.225-0.046,0.311-0.125c0.111-0.103,0.253-0.255,0.253-0.386
	C29.001-214.954,29-227.273,29-240c3.523,0,6.99-0.205,10.413,0.091c1.603,0.138,3.271,1.022,4.647,1.954
	c2.979,2.016,6.078,3.727,9.438,5.004c0.568,0.216,0.957,0.907,1.604,1.555c0,3.609,0,7.396,0,11.286c3.141,0,6.111,0,9.119,0
	c3.335,2.118,6.643,4.221,9.774,6.211c0,6.392,0,12.39,0,18.233c7.972,4.677,15.874,9.313,23.956,14.057c0,2.333,0,4.788,0,7.424
	c0.958,0,1.74,0,2.985,0c0.154-7.031-0.007-14.273,0.089-21.608c0.594-0.094,1.048-0.165,1.743-0.275c0,4.201,0,8.31,0,12.312
	c2.216,2.104,4.26,4.046,6.181,5.87c0,2.275,0,4.262,0,6.247c1.647,0.916,3.258,1.811,4.954,2.754c0,4.229,0,8.35,0,12.486
	c8.28,3.284,16.413,6.51,24.906,9.878c0-1.382,0-2.163,0-3.206c3.726-0.521,7.295-1.021,11.107-1.556c0,9.976,0,19.428,0,28.703
	c3.474,3.474,6.773,6.773,10.249,10.249c0,3.611,0,7.398,0,11.233c0.961,0,1.745,0,2.705,0c0-2.876,0-5.664,0-8.437
	c1.416-0.641,2.682-1.214,4.12-1.865c0-1.033,0-2.152,0-3.68c2.193-0.737,4.353-1.464,7.004-2.354c0,2.146,0,3.716,0,5.608
	c2.169-0.477,3.931-0.864,5.942-1.307c0,4.844,0,9.298,0,13.978c1.551,0.815,3.057,1.608,5.002,2.633c0,9.843,0,20.083,0,30.935
	c2.383-1.792,4.244-3.191,5.551-4.175c2.109-5.895,3.975-11.107,5.752-16.077c0.785-0.2,1.233-0.314,1.666-0.425
	c0.07-1.252,0.134-2.373,0.203-3.61c1.585,0,3.037,0,4.688,0c0,1.083,0,2.188,0,3.372c1.394,0.636,2.646,1.206,3.665,1.67
	c3.71,6.453,6.201,13.363,10.683,20.017c0,2.411,0,5.533,0,9.489c1.253-1.71,2.206-2.722,2.812-3.91
	c0.813-1.593,1.991-2.008,3.572-1.696c3.78,6.451,7.552,12.888,11.405,19.464c0,3.83,0,7.812,0,11.826
	c1.956,2.729,5.414,1.308,7.94,3.396c0,6.233,0,13.019,0,19.97c2.575,1.581,5.097,3.13,7.945,4.879c0,7.33,0,15.115,0,23.074
	C172.527,99.973,94.056,178.444,15.5,257z M46.901-17c-24.055,0-47.703,0-71.476,0c-3.814-4.169-7.677-8.407-11.562-12.624
	c-0.927-1.006-1.93-1.941-3.364-3.376c29.114,0,57.417,0,85.721-0.007c0.145,0,0.303-0.076,0.432-0.154
	c0.139-0.085,0.25-0.216,0.348-0.303c0-45.042,0-90.035,0-134.16c-11.009-11.009-21.584-21.584-31.876-31.876
	C-58.251-126.126-131.845-52.532-205.069,20.693c73.298,73.298,147.118,147.118,220.938,220.938
	c71.93-71.93,144.042-144.046,216.169-216.146c1.556-1.554,3.282-2.937,5.183-4.625c-0.493-0.538-1.001-1.133-1.552-1.686
	c-2.938-2.952-5.888-5.895-8.834-8.841c-2.945-2.945-5.696-6.127-8.893-8.77c-3.104-2.566-5.459-5.788-8.383-8.476
	c-2.264-2.081-4.802-3.877-6.974-6.046c-47.515-47.459-94.994-94.952-142.657-142.615c0-2.609,0-5.397,0-8.186
	c-0.177,0.12-0.354,0.24-0.531,0.36c-0.257-0.576-0.515-1.153-1.219-2.729c0,45.521,0,89.752,0,134.136
	c2.841,1.1,5.651,2.1,7.95,4.003c3.259,2.697,6.556,5.403,8.576,9.229c1.221,2.312,2.17,4.767,3.303,7.127
	c2.406,5.015,3.636,10.325,3.974,15.846c0.122,1.992-0.006,3.998,0.025,5.997c0.056,3.696-0.979,7.159-1.945,10.687
	c-1.364,4.98-3.305,9.674-6.103,13.969c-1.641,2.519-3.337,5.24-5.661,7.017C65.266,44.2,61.588,45.673,58,47.611
	c0,8.086,0,16.401,0,24.718c0,8.468,0,16.936,0,25.452c-1.477,0-2.707,0-3.497,0C39.907,80.93,25.607,64.42,11.476,48.103
	c-14.241,0-28.212,0-42.531,0c0,16.669,0,33.239,0,49.769c-4.804,0-9.255,0-13.719,0c0-43.028,0-85.926,0-128.847
	c1.22,0,2.213,0,3.439,0c1.259,1.302,3.113,2.515,3.918,4.222c1.188,2.521,3.426,3.899,5.062,5.894
	c1.636,1.994,3.238,4.021,4.958,5.94c3.494,3.905,7.334,7.538,10.492,11.692c1.992,2.621,4.603,4.683,6.35,7.36
	c1.368,2.096,3.131,3.694,4.702,5.527c1.68,1.958,3.246,4.014,4.969,5.932c3.611,4.023,7.325,7.955,10.92,11.992
	c0.779,0.875,1.237,2.034,1.957,3.258c-5.289,0-10.408,0-15.382,0c-0.87-1.113-1.673-2.299-2.633-3.34
	c-4.567-4.954-9.178-9.869-13.775-14.796c-0.341-0.365-0.9-0.649-1.027-1.071c-0.817-2.709-3.339-3.949-4.989-5.933
	c-1.568-1.887-3.207-3.715-4.958-5.733c0,11.521,0,22.756,0,33.88c26.011,0,51.793,0,77.673,0C46.901,16.915,46.901,0.133,46.901-17
	z M58.113,31.491c1.631-1.743,2.953-2.82,3.85-4.178c2.384-3.611,4.732-12.827,5.103-16.89c0.568-6.246-1.225-12.039-3.2-17.708
	c-0.995-2.854-2.256-6.143-5.752-7.396C58.113,0.501,58.113,15.614,58.113,31.491z M46.826,70.042c0-8.104,0-14.997,0-22.072
	c-6.385,0.153-12.602-0.199-19.111,0.248C34.022,55.42,40.039,62.291,46.826,70.042z"/>
</svg>
