<?xml version="1.0" encoding="utf-8"?>
<!-- Generator: Adobe Illustrator 16.0.0, SVG Export Plug-In . SVG Version: 6.00 Build 0)  -->
<!DOCTYPE svg PUBLIC "-//W3C//DTD SVG 1.1//EN" "http://www.w3.org/Graphics/SVG/1.1/DTD/svg11.dtd">
<svg version="1.1" id="Layer_1" xmlns="http://www.w3.org/2000/svg" xmlns:xlink="http://www.w3.org/1999/xlink" x="0px" y="0px"
	 width="8.004px" height="7.602px" viewBox="0 0 8.004 7.602" enable-background="new 0 0 8.004 7.602" xml:space="preserve">
<g>
	<path fill="#6B6B6B" d="M6.852,2.466H6.051l-0.992-1.2l-1.711,1.2H1.906c-0.277,0-0.517,0.104-0.719,0.312
		C0.984,2.986,0.883,3.229,0.883,3.506v1.28L0.019,2.418c-0.053-0.203,0.005-0.341,0.176-0.416l5.44-1.984
		c0.191-0.053,0.326,0.011,0.4,0.192L6.852,2.466z M7.699,3.186c0.086,0,0.156,0.032,0.215,0.096s0.09,0.139,0.09,0.224v3.776
		c0,0.085-0.031,0.16-0.09,0.224S7.785,7.602,7.699,7.602H1.906c-0.084,0-0.156-0.032-0.215-0.096S1.604,7.367,1.604,7.282V3.506
		c0-0.085,0.029-0.16,0.088-0.224s0.131-0.096,0.215-0.096H7.699z M7.25,6.802V5.506l-0.574-1.28l-1.328,0.48L4.307,5.762
		l-1.104-1.36L2.467,6.114v0.688H7.25z"/>
</g>
</svg>
